<svg xmlns="http://www.w3.org/2000/svg" xmlns:xlink="http://www.w3.org/1999/xlink" xml:space="preserve" version="1.0" viewBox="0 0 100 100">
  <defs>
    <path id="a" d="M601 0H1v700h700V0H601zm0 200v400H101V100h500v100z"/>
    <path id="b" d="M400 200H200v300h300V200z"/>
  </defs>
  <svg xmlns="http://www.w3.org/2000/svg" xmlns:xlink="http://www.w3.org/1999/xlink" width="100" height="100" shape-rendering="crispEdges" viewBox="0 0 2000 2000">
    <path fill="#fff" d="M0 0h2000v2000H0z"/>
    <path d="M517 149h46v46h-46zm46 0h46v46h-46zm46 0h46v46h-46zm92 0h46v46h-46zm46 0h46v46h-46zm46 0h46v46h-46zm230 0h46v46h-46zm184 0h46v46h-46zm46 0h46v46h-46zm46 0h46v46h-46zm92 0h46v46h-46zm-874 46h46v46h-46zm46 0h46v46h-46zm46 0h46v46h-46zm322 0h46v46h-46zm92 0h46v46h-46zm46 0h46v46h-46zm46 0h46v46h-46zm46 0h46v46h-46zm138 0h46v46h-46zm138 0h46v46h-46zm-920 46h46v46h-46zm92 0h46v46h-46zm46 0h46v46h-46zm92 0h46v46h-46zm138 0h46v46h-46zm184 0h46v46h-46zm92 0h46v46h-46zm92 0h46v46h-46zm92 0h46v46h-46zm46 0h46v46h-46zm-874 46h46v46h-46zm46 0h46v46h-46zm92 0h46v46h-46zm184 0h46v46h-46zm138 0h46v46h-46zm230 0h46v46h-46zm138 0h46v46h-46zm46 0h46v46h-46zm-644 46h46v46h-46zm46 0h46v46h-46zm92 0h46v46h-46zm92 0h46v46h-46zm92 0h46v46h-46zm92 0h46v46h-46zm46 0h46v46h-46zm92 0h46v46h-46zm92 0h46v46h-46zm-874 46h46v46h-46zm138 0h46v46h-46zm46 0h46v46h-46zm230 0h46v46h-46zm184 0h46v46h-46zm46 0h46v46h-46zm92 0h46v46h-46zm46 0h46v46h-46zm92 0h46v46h-46zm46 0h46v46h-46zm-920 46h46v46h-46zm92 0h46v46h-46zm92 0h46v46h-46zm92 0h46v46h-46zm92 0h46v46h-46zm92 0h46v46h-46zm92 0h46v46h-46zm92 0h46v46h-46zm92 0h46v46h-46zm92 0h46v46h-46zm92 0h46v46h-46zm-874 46h46v46h-46zm138 0h46v46h-46zm230 0h46v46h-46zm46 0h46v46h-46zm46 0h46v46h-46zm138 0h46v46h-46zm92 0h46v46h-46zm184 0h46v46h-46zM149 517h46v46h-46zm46 0h46v46h-46zm138 0h46v46h-46zm46 0h46v46h-46zm46 0h46v46h-46zm230 0h46v46h-46zm92 0h46v46h-46zm138 0h46v46h-46zm138 0h46v46h-46zm138 0h46v46h-46zm92 0h46v46h-46zm92 0h46v46h-46zm92 0h46v46h-46zm138 0h46v46h-46zm92 0h46v46h-46zm46 0h46v46h-46zm46 0h46v46h-46zm46 0h46v46h-46zM195 563h46v46h-46zm184 0h46v46h-46zm184 0h46v46h-46zm46 0h46v46h-46zm92 0h46v46h-46zm46 0h46v46h-46zm92 0h46v46h-46zm46 0h46v46h-46zm92 0h46v46h-46zm46 0h46v46h-46zm46 0h46v46h-46zm92 0h46v46h-46zm92 0h46v46h-46zm46 0h46v46h-46zm46 0h46v46h-46zm92 0h46v46h-46zm46 0h46v46h-46zm46 0h46v46h-46zm92 0h46v46h-46zm46 0h46v46h-46zm92 0h46v46h-46zm46 0h46v46h-46zM195 609h46v46h-46zm92 0h46v46h-46zm46 0h46v46h-46zm92 0h46v46h-46zm46 0h46v46h-46zm46 0h46v46h-46zm46 0h46v46h-46zm46 0h46v46h-46zm46 0h46v46h-46zm46 0h46v46h-46zm46 0h46v46h-46zm46 0h46v46h-46zm46 0h46v46h-46zm46 0h46v46h-46zm92 0h46v46h-46zm46 0h46v46h-46zm46 0h46v46h-46zm92 0h46v46h-46zm46 0h46v46h-46zm92 0h46v46h-46zm138 0h46v46h-46zm138 0h46v46h-46zm46 0h46v46h-46zm92 0h46v46h-46zm92 0h46v46h-46zM149 655h46v46h-46zm46 0h46v46h-46zm46 0h46v46h-46zm92 0h46v46h-46zm46 0h46v46h-46zm230 0h46v46h-46zm46 0h46v46h-46zm138 0h46v46h-46zm138 0h46v46h-46zm138 0h46v46h-46zm46 0h46v46h-46zm46 0h46v46h-46zm138 0h46v46h-46zm46 0h46v46h-46zm138 0h46v46h-46zm46 0h46v46h-46zm46 0h46v46h-46zm92 0h46v46h-46zm46 0h46v46h-46zm46 0h46v46h-46zM149 701h46v46h-46zm46 0h46v46h-46zm46 0h46v46h-46zm46 0h46v46h-46zm46 0h46v46h-46zm46 0h46v46h-46zm46 0h46v46h-46zm276 0h46v46h-46zm92 0h46v46h-46zm92 0h46v46h-46zm138 0h46v46h-46zm46 0h46v46h-46zm184 0h46v46h-46zm92 0h46v46h-46zm92 0h46v46h-46zm92 0h46v46h-46zm92 0h46v46h-46zm46 0h46v46h-46zm46 0h46v46h-46zm46 0h46v46h-46zm46 0h46v46h-46zM149 747h46v46h-46zm138 0h46v46h-46zm92 0h46v46h-46zm92 0h46v46h-46zm46 0h46v46h-46zm46 0h46v46h-46zm46 0h46v46h-46zm138 0h46v46h-46zm46 0h46v46h-46zm230 0h46v46h-46zm230 0h46v46h-46zm46 0h46v46h-46zm46 0h46v46h-46zm46 0h46v46h-46zm46 0h46v46h-46zm46 0h46v46h-46zm92 0h46v46h-46zm92 0h46v46h-46zm138 0h46v46h-46zM195 793h46v46h-46zm46 0h46v46h-46zm92 0h46v46h-46zm46 0h46v46h-46zm46 0h46v46h-46zm138 0h46v46h-46zm46 0h46v46h-46zm138 0h46v46h-46zm46 0h46v46h-46zm46 0h46v46h-46zm46 0h46v46h-46zm92 0h46v46h-46zm368 0h46v46h-46zm92 0h46v46h-46zm138 0h46v46h-46zm46 0h46v46h-46zm46 0h46v46h-46zm46 0h46v46h-46zM287 839h46v46h-46zm230 0h46v46h-46zm46 0h46v46h-46zm138 0h46v46h-46zm230 0h46v46h-46zm46 0h46v46h-46zm92 0h46v46h-46zm92 0h46v46h-46zm92 0h46v46h-46zm230 0h46v46h-46zm46 0h46v46h-46zm46 0h46v46h-46zm138 0h46v46h-46zM287 885h46v46h-46zm138 0h46v46h-46zm46 0h46v46h-46zm184 0h46v46h-46zm92 0h46v46h-46zm138 0h46v46h-46zm46 0h46v46h-46zm46 0h46v46h-46zm46 0h46v46h-46zm414 0h46v46h-46zm46 0h46v46h-46zm46 0h46v46h-46zm46 0h46v46h-46zm92 0h46v46h-46zm46 0h46v46h-46zm46 0h46v46h-46zm46 0h46v46h-46zM149 931h46v46h-46zm138 0h46v46h-46zm46 0h46v46h-46zm46 0h46v46h-46zm322 0h46v46h-46zm46 0h46v46h-46zm92 0h46v46h-46zm138 0h46v46h-46zm230 0h46v46h-46zm46 0h46v46h-46zm46 0h46v46h-46zm92 0h46v46h-46zm92 0h46v46h-46zm46 0h46v46h-46zm230 0h46v46h-46zm46 0h46v46h-46zM425 977h46v46h-46zm92 0h46v46h-46zm138 0h46v46h-46zm46 0h46v46h-46zm46 0h46v46h-46zm92 0h46v46h-46zm184 0h46v46h-46zm184 0h46v46h-46zm92 0h46v46h-46zm46 0h46v46h-46zm46 0h46v46h-46zm46 0h46v46h-46zm184 0h46v46h-46zm138 0h46v46h-46zm-1610 46h46v46h-46zm46 0h46v46h-46zm276 0h46v46h-46zm46 0h46v46h-46zm92 0h46v46h-46zm46 0h46v46h-46zm92 0h46v46h-46zm184 0h46v46h-46zm138 0h46v46h-46zm92 0h46v46h-46zm92 0h46v46h-46zm230 0h46v46h-46zm92 0h46v46h-46zm92 0h46v46h-46zm92 0h46v46h-46zm-1610 46h46v46h-46zm138 0h46v46h-46zm46 0h46v46h-46zm46 0h46v46h-46zm46 0h46v46h-46zm276 0h46v46h-46zm184 0h46v46h-46zm92 0h46v46h-46zm46 0h46v46h-46zm46 0h46v46h-46zm46 0h46v46h-46zm46 0h46v46h-46zm138 0h46v46h-46zm230 0h46v46h-46zm92 0h46v46h-46zm92 0h46v46h-46zm46 0h46v46h-46zm46 0h46v46h-46zm-1656 46h46v46h-46zm46 0h46v46h-46zm46 0h46v46h-46zm230 0h46v46h-46zm276 0h46v46h-46zm46 0h46v46h-46zm46 0h46v46h-46zm138 0h46v46h-46zm92 0h46v46h-46zm92 0h46v46h-46zm138 0h46v46h-46zm92 0h46v46h-46zm46 0h46v46h-46zm92 0h46v46h-46zm46 0h46v46h-46zm92 0h46v46h-46zm92 0h46v46h-46zm46 0h46v46h-46zm-1656 46h46v46h-46zm92 0h46v46h-46zm46 0h46v46h-46zm92 0h46v46h-46zm46 0h46v46h-46zm138 0h46v46h-46zm184 0h46v46h-46zm92 0h46v46h-46zm138 0h46v46h-46zm230 0h46v46h-46zm46 0h46v46h-46zm46 0h46v46h-46zm46 0h46v46h-46zm92 0h46v46h-46zm184 0h46v46h-46zm92 0h46v46h-46zm92 0h46v46h-46zm-1656 46h46v46h-46zm92 0h46v46h-46zm230 0h46v46h-46zm46 0h46v46h-46zm92 0h46v46h-46zm92 0h46v46h-46zm46 0h46v46h-46zm46 0h46v46h-46zm184 0h46v46h-46zm92 0h46v46h-46zm92 0h46v46h-46zm92 0h46v46h-46zm92 0h46v46h-46zm92 0h46v46h-46zm46 0h46v46h-46zm46 0h46v46h-46zm46 0h46v46h-46zm138 0h46v46h-46zm46 0h46v46h-46zm-1564 46h46v46h-46zm92 0h46v46h-46zm138 0h46v46h-46zm46 0h46v46h-46zm46 0h46v46h-46zm138 0h46v46h-46zm138 0h46v46h-46zm92 0h46v46h-46zm92 0h46v46h-46zm46 0h46v46h-46zm138 0h46v46h-46zm138 0h46v46h-46zm184 0h46v46h-46zm46 0h46v46h-46zm92 0h46v46h-46zm138 0h46v46h-46zm46 0h46v46h-46zm-1656 46h46v46h-46zm46 0h46v46h-46zm92 0h46v46h-46zm184 0h46v46h-46zm230 0h46v46h-46zm46 0h46v46h-46zm138 0h46v46h-46zm184 0h46v46h-46zm92 0h46v46h-46zm46 0h46v46h-46zm92 0h46v46h-46zm46 0h46v46h-46zm92 0h46v46h-46zm46 0h46v46h-46zm184 0h46v46h-46zm138 0h46v46h-46zm-1564 46h46v46h-46zm46 0h46v46h-46zm46 0h46v46h-46zm46 0h46v46h-46zm46 0h46v46h-46zm92 0h46v46h-46zm46 0h46v46h-46zm92 0h46v46h-46zm46 0h46v46h-46zm46 0h46v46h-46zm92 0h46v46h-46zm46 0h46v46h-46zm92 0h46v46h-46zm46 0h46v46h-46zm46 0h46v46h-46zm230 0h46v46h-46zm138 0h46v46h-46zm184 0h46v46h-46zm46 0h46v46h-46zm46 0h46v46h-46zm92 0h46v46h-46zm-1472 46h46v46h-46zm46 0h46v46h-46zm92 0h46v46h-46zm138 0h46v46h-46zm46 0h46v46h-46zm92 0h46v46h-46zm46 0h46v46h-46zm230 0h46v46h-46zm92 0h46v46h-46zm46 0h46v46h-46zm92 0h46v46h-46zm230 0h46v46h-46zm46 0h46v46h-46zm46 0h46v46h-46zm-1426 46h46v46h-46zm46 0h46v46h-46zm46 0h46v46h-46zm138 0h46v46h-46zm46 0h46v46h-46zm46 0h46v46h-46zm46 0h46v46h-46zm184 0h46v46h-46zm92 0h46v46h-46zm92 0h46v46h-46zm46 0h46v46h-46zm92 0h46v46h-46zm138 0h46v46h-46zm92 0h46v46h-46zm46 0h46v46h-46zm46 0h46v46h-46zm92 0h46v46h-46zm46 0h46v46h-46zm46 0h46v46h-46zm46 0h46v46h-46zm46 0h46v46h-46zm46 0h46v46h-46zm46 0h46v46h-46zm46 0h46v46h-46zm46 0h46v46h-46zm-1288 46h46v46h-46zm230 0h46v46h-46zm138 0h46v46h-46zm138 0h46v46h-46zm138 0h46v46h-46zm138 0h46v46h-46zm46 0h46v46h-46zm46 0h46v46h-46zm46 0h46v46h-46zm184 0h46v46h-46zm184 0h46v46h-46zm-920 46h46v46h-46zm92 0h46v46h-46zm230 0h46v46h-46zm46 0h46v46h-46zm46 0h46v46h-46zm46 0h46v46h-46zm46 0h46v46h-46zm46 0h46v46h-46zm92 0h46v46h-46zm92 0h46v46h-46zm-1104 46h46v46h-46zm46 0h46v46h-46zm138 0h46v46h-46zm230 0h46v46h-46zm46 0h46v46h-46zm46 0h46v46h-46zm46 0h46v46h-46zm46 0h46v46h-46zm138 0h46v46h-46zm46 0h46v46h-46zm92 0h46v46h-46zm46 0h46v46h-46zm184 0h46v46h-46zm46 0h46v46h-46zm92 0h46v46h-46zm46 0h46v46h-46zm-1288 46h46v46h-46zm46 0h46v46h-46zm92 0h46v46h-46zm92 0h46v46h-46zm46 0h46v46h-46zm230 0h46v46h-46zm230 0h46v46h-46zm46 0h46v46h-46zm46 0h46v46h-46zm46 0h46v46h-46zm46 0h46v46h-46zm46 0h46v46h-46zm46 0h46v46h-46zm46 0h46v46h-46zm46 0h46v46h-46zm92 0h46v46h-46zm-1104 46h46v46h-46zm92 0h46v46h-46zm92 0h46v46h-46zm460 0h46v46h-46zm46 0h46v46h-46zm138 0h46v46h-46zm46 0h46v46h-46zm138 0h46v46h-46zm46 0h46v46h-46zm92 0h46v46h-46zm46 0h46v46h-46zm-1242 46h46v46h-46zm46 0h46v46h-46zm46 0h46v46h-46zm46 0h46v46h-46zm46 0h46v46h-46zm46 0h46v46h-46zm46 0h46v46h-46zm46 0h46v46h-46zm92 0h46v46h-46zm230 0h46v46h-46zm92 0h46v46h-46zm46 0h46v46h-46zm92 0h46v46h-46zm138 0h46v46h-46zm92 0h46v46h-46zm92 0h46v46h-46zm-1242 46h46v46h-46zm138 0h46v46h-46zm92 0h46v46h-46zm138 0h46v46h-46zm46 0h46v46h-46zm46 0h46v46h-46zm46 0h46v46h-46zm46 0h46v46h-46zm46 0h46v46h-46zm46 0h46v46h-46zm138 0h46v46h-46zm138 0h46v46h-46zm184 0h46v46h-46zm46 0h46v46h-46zm46 0h46v46h-46zm92 0h46v46h-46zm-1288 46h46v46h-46zm184 0h46v46h-46zm46 0h46v46h-46zm184 0h46v46h-46zm46 0h46v46h-46zm46 0h46v46h-46zm230 0h46v46h-46zm368 0h46v46h-46zm46 0h46v46h-46zm92 0h46v46h-46zm46 0h46v46h-46z"/>
    <svg xml:space="preserve" width="322" height="322" x="149" y="149" shape-rendering="auto" viewBox="0 0 700 700">
      <use xlink:href="#a"/>
    </svg>
    <svg xml:space="preserve" width="322" height="322" x="149" y="149" shape-rendering="auto" version="1.0" viewBox="0 0 700 700">
      <use xlink:href="#b"/>
    </svg>
    <svg xml:space="preserve" width="322" height="322" x="1529" y="149" shape-rendering="auto" viewBox="0 0 700 700">
      <use xlink:href="#a"/>
    </svg>
    <svg xml:space="preserve" width="322" height="322" x="1529" y="149" shape-rendering="auto" version="1.0" viewBox="0 0 700 700">
      <use xlink:href="#b"/>
    </svg>
    <svg xml:space="preserve" width="322" height="322" x="149" y="1529" shape-rendering="auto" viewBox="0 0 700 700">
      <use xlink:href="#a"/>
    </svg>
    <svg xml:space="preserve" width="322" height="322" x="149" y="1529" shape-rendering="auto" version="1.0" viewBox="0 0 700 700">
      <use xlink:href="#b"/>
    </svg>
  </svg>
</svg>